# xmcd CD database file generated by Grip 3.3.1
# 
# Track frame offsets:
#       150
#       16194
#       38723
# 
# Disc length: 860 seconds
# 
# Revision: 1
# Processed by: cddbd v1.5.1PL2 Copyright (c) Steve Scherf et al.
# Submitted via: Grip 3.3.1
# 
DISCID=16035a03
DTITLE=Sir Oliver Skardy - President Buana
DYEAR=1992
DGENRE=Reggae
TTITLE0=President Buana (radio edit)
TTITLE1=President Buana (clab mix)
TTITLE2=President Buana (dab mix)
EXTD=YEAR: 1992
EXTT0=
EXTT1=
EXTT2=
PLAYORDER=
